<svg width="32" height="32" viewBox="0 0 32 32" fill="none" xmlns="http://www.w3.org/2000/svg">
<path d="M21.1669 8.43934C21.7527 7.85355 22.7032 7.85355 23.2889 8.43934C23.8743 9.02505 23.8743 9.97472 23.2889 10.5604L17.9852 15.8632L23.2889 21.1669C23.8747 21.7527 23.8747 22.7032 23.2889 23.2889C22.7033 23.8744 21.7536 23.8743 21.1679 23.2889L15.8641 17.9852L10.5604 23.2889C9.97472 23.8743 9.02505 23.8743 8.43934 23.2889C7.85355 22.7032 7.85355 21.7527 8.43934 21.1669L13.7421 15.8632L8.43934 10.5604C7.85381 9.9747 7.85381 9.02508 8.43934 8.43934C9.02513 7.85355 9.97562 7.85355 10.5614 8.43934L15.8641 13.7421L21.1669 8.43934Z" fill="white"/>
</svg>
