<svg width="32" height="32" viewBox="0 0 32 32" fill="none" xmlns="http://www.w3.org/2000/svg">
<path d="M8.5 14.5C7.94772 14.5 7.5 14.0523 7.5 13.5L7.5 8.5C7.5 7.94772 7.94772 7.5 8.5 7.5L13.5 7.5C14.0523 7.5 14.5 7.94772 14.5 8.5L14.5 13.5C14.5 14.0523 14.0523 14.5 13.5 14.5L8.5 14.5Z" stroke="white" stroke-width="2"/>
<path d="M8.5 24.5C7.94772 24.5 7.5 24.0523 7.5 23.5L7.5 18.5C7.5 17.9477 7.94772 17.5 8.5 17.5L13.5 17.5C14.0523 17.5 14.5 17.9477 14.5 18.5L14.5 23.5C14.5 24.0523 14.0523 24.5 13.5 24.5L8.5 24.5Z" stroke="white" stroke-width="2"/>
<path d="M18.5 14.5C17.9477 14.5 17.5 14.0523 17.5 13.5L17.5 8.5C17.5 7.94772 17.9477 7.5 18.5 7.5L23.5 7.5C24.0523 7.5 24.5 7.94772 24.5 8.5L24.5 13.5C24.5 14.0523 24.0523 14.5 23.5 14.5L18.5 14.5Z" stroke="white" stroke-width="2"/>
<path d="M18.5 24.5C17.9477 24.5 17.5 24.0523 17.5 23.5L17.5 18.5C17.5 17.9477 17.9477 17.5 18.5 17.5L23.5 17.5C24.0523 17.5 24.5 17.9477 24.5 18.5L24.5 23.5C24.5 24.0523 24.0523 24.5 23.5 24.5L18.5 24.5Z" stroke="white" stroke-width="2"/>
</svg>
