<svg width="32" height="32" viewBox="0 0 32 32" fill="none" xmlns="http://www.w3.org/2000/svg">
<path d="M8.03696 14.0532V21.8403H6.36136V15.616H6.31492L4.5 16.7338V15.2738L6.46197 14.0532H8.03696Z" fill="white"/>
<path d="M10.1982 21.8403V20.3574L13.7246 17.1492C14.0245 16.8641 14.276 16.6074 14.4792 16.3793C14.6855 16.1511 14.8419 15.9278 14.9484 15.7091C15.0548 15.4873 15.108 15.2481 15.108 14.9914C15.108 14.7063 15.0419 14.4607 14.9097 14.2548C14.7774 14.0456 14.5969 13.8856 14.3679 13.7747C14.1389 13.6606 13.8793 13.6036 13.5891 13.6036C13.286 13.6036 13.0215 13.6638 12.7958 13.7842C12.5701 13.9046 12.3959 14.0773 12.2734 14.3023C12.1508 14.5272 12.0896 14.795 12.0896 15.1055H10.1015C10.1015 14.4686 10.2482 13.9157 10.5417 13.4468C10.8351 12.9778 11.2463 12.615 11.7752 12.3584C12.304 12.1017 12.9135 11.9734 13.6036 11.9734C14.3131 11.9734 14.9306 12.097 15.4563 12.3441C15.9851 12.5881 16.3963 12.9271 16.6898 13.3612C16.9832 13.7953 17.1299 14.2928 17.1299 14.8536C17.1299 15.2212 17.0558 15.584 16.9074 15.942C16.7623 16.3001 16.5027 16.6977 16.1286 17.135C15.7546 17.5691 15.2273 18.0903 14.5469 18.6987L13.1006 20.0913V20.1578H17.2605V21.8403H10.1982Z" fill="white"/>
<path d="M22.9259 22C22.0591 22 21.287 21.8536 20.6098 21.5608C19.9365 21.2643 19.4044 20.8574 19.0136 20.3403C18.6266 19.8194 18.4273 19.2186 18.4157 18.538H20.9465C20.962 18.8232 21.0568 19.0741 21.2309 19.2909C21.4089 19.5038 21.645 19.6692 21.9391 19.7871C22.2332 19.9049 22.5641 19.9639 22.9317 19.9639C23.3148 19.9639 23.6534 19.8973 23.9475 19.7643C24.2416 19.6312 24.4719 19.4468 24.6383 19.211C24.8047 18.9753 24.8879 18.7034 24.8879 18.3954C24.8879 18.0837 24.7988 17.808 24.6208 17.5684C24.4467 17.3251 24.1952 17.135 23.8662 16.9981C23.5412 16.8612 23.1542 16.7928 22.7053 16.7928H21.5966V14.9791H22.7053C23.0845 14.9791 23.4193 14.9144 23.7095 14.7852C24.0036 14.6559 24.2319 14.4772 24.3945 14.2491C24.557 14.0171 24.6383 13.7471 24.6383 13.4392C24.6383 13.1464 24.5667 12.8897 24.4235 12.6692C24.2842 12.4449 24.0868 12.27 23.8314 12.1445C23.5799 12.019 23.2858 11.9563 22.9491 11.9563C22.6086 11.9563 22.297 12.0171 22.0146 12.1388C21.7321 12.2567 21.5057 12.4259 21.3354 12.6464C21.1651 12.8669 21.0742 13.1255 21.0626 13.4221H18.6537C18.6653 12.749 18.8607 12.1559 19.2399 11.6426C19.6192 11.1293 20.13 10.7281 20.7724 10.4392C21.4186 10.1464 22.1481 10 22.9607 10C23.7811 10 24.4989 10.1464 25.1142 10.4392C25.7295 10.7319 26.2074 11.1274 26.548 11.6255C26.8924 12.1198 27.0627 12.6749 27.0588 13.2909C27.0627 13.9449 26.8556 14.4905 26.4377 14.9278C26.0236 15.365 25.4838 15.6426 24.8182 15.7605V15.8517C25.6928 15.962 26.3584 16.2605 26.815 16.7471C27.2755 17.23 27.5038 17.8346 27.4999 18.5608C27.5038 19.2262 27.3084 19.8175 26.9137 20.3346C26.5228 20.8517 25.983 21.2586 25.2942 21.5551C24.6054 21.8517 23.8159 22 22.9259 22Z" fill="white"/>
</svg>
