<svg width="32" height="32" viewBox="0 0 32 32" fill="none" xmlns="http://www.w3.org/2000/svg">
<path d="M24.0178 10C24.6827 10.0001 25.2996 10.0949 25.8674 10.2849C26.4387 10.475 26.9448 10.7527 27.3855 11.1175C27.8264 11.4787 28.1853 11.9221 28.4618 12.4468C28.7421 12.9715 28.9215 13.5724 29 14.2492H26.5455C26.5007 13.926 26.4089 13.6388 26.2707 13.3879C26.1324 13.1331 25.9543 12.917 25.7376 12.7383C25.5209 12.5596 25.2702 12.4216 24.9863 12.3265C24.7062 12.2316 24.4016 12.1841 24.0731 12.1841C23.4791 12.1841 22.9611 12.3347 22.5202 12.635C22.0795 12.9316 21.7381 13.3653 21.4953 13.9355C21.2524 14.5021 21.1305 15.1908 21.1305 16.0007C21.1306 16.8329 21.2526 17.5321 21.4953 18.0985C21.7419 18.665 22.0858 19.093 22.5267 19.382C22.9675 19.6709 23.4773 19.8159 24.0564 19.8159C24.3814 19.8159 24.6828 19.7727 24.9593 19.6852C25.2394 19.5978 25.4876 19.4695 25.7042 19.3023C25.9208 19.1313 26.1005 18.9245 26.2424 18.6814C26.3881 18.4381 26.4895 18.1593 26.5455 17.8475L29 17.8593C28.9365 18.3954 28.7775 18.9127 28.5235 19.4107C28.2732 19.905 27.9348 20.3484 27.5088 20.74C27.0866 21.1278 26.5823 21.436 25.9958 21.6641C25.4131 21.8884 24.7537 21.9999 24.0178 22C22.9941 22 22.0776 21.7644 21.2705 21.2929C20.4676 20.8215 19.8327 20.1391 19.3658 19.2461C18.9025 18.3526 18.671 17.2704 18.6709 16.0007C18.6709 14.7269 18.9052 13.6423 19.376 12.7487C19.8468 11.8552 20.4866 11.1748 21.2936 10.7071C22.1006 10.2357 23.0091 10 24.0178 10Z" fill="white"/>
<path fill-rule="evenodd" clip-rule="evenodd" d="M10.3647 21.8405H8.63079L8.06437 20.0643H5.30164L4.73393 21.8405H3L5.642 14.0532H7.72657L10.3647 21.8405ZM5.71264 18.7794H7.65465L6.71447 15.8334H6.6541L5.71264 18.7794Z" fill="white"/>
<path fill-rule="evenodd" clip-rule="evenodd" d="M14.6443 12.107C15.3479 12.107 15.9351 12.2123 16.4052 12.4246C16.8754 12.6369 17.2282 12.9324 17.4649 13.3094C17.7015 13.6833 17.8206 14.1141 17.8206 14.6021C17.8206 14.9822 17.7453 15.3163 17.5959 15.6046C17.4464 15.8898 17.2409 16.124 16.9794 16.3078C16.7209 16.4884 16.425 16.6173 16.0918 16.6934V16.7888C16.4561 16.8046 16.7979 16.9092 17.1155 17.1025C17.4359 17.2957 17.696 17.566 17.8951 17.9142C18.0944 18.2595 18.1944 18.6722 18.1944 19.1506C18.1943 19.667 18.0677 20.128 17.8155 20.5335C17.5664 20.9359 17.1971 21.2545 16.7083 21.4889C16.2196 21.7233 15.6171 21.8405 14.9012 21.8405H10.8143V12.107H14.6443ZM12.8372 20.1584H14.4851C15.0483 20.1584 15.4596 20.0487 15.7181 19.8303C15.9765 19.6085 16.106 19.313 16.106 18.9454C16.1059 18.6763 16.0422 18.4389 15.9146 18.2331C15.787 18.0273 15.6052 17.8654 15.3687 17.7482C15.1353 17.631 14.8563 17.5731 14.5326 17.573H12.8372V20.1584ZM12.8372 16.1797H14.3361C14.6132 16.1797 14.8597 16.1302 15.0746 16.032C15.2923 15.9306 15.4639 15.7882 15.5884 15.6046C15.7158 15.421 15.7796 15.2009 15.7797 14.9446C15.7797 14.5928 15.6558 14.3091 15.4098 14.0937C15.167 13.8783 14.8216 13.7695 14.3733 13.7695H12.8372V16.1797Z" fill="white"/>
</svg>
